<svg id="Layer_1" data-name="Layer 1" xmlns="http://www.w3.org/2000/svg" viewBox="0 0 548.23 62.64"><title>logo</title><path d="M216.9,427.25l4.18-48.53h12.17L240,396.29q1.73,4.39,3,8.06t1.58,5.18l.36,1.44a128.63,128.63,0,0,1,5-14.69l6.84-17.57H269l5,48.53H262.91l-1.8-18.79-.94-14.18q-1.87,5.4-5.18,14.18l-6.84,18.29H241.6l-6.77-18.29q-1.66-4.46-2.81-8t-1.51-4.9l-.36-1.3q0,5.11-.65,14.18L228,427.25Z" transform="translate(-216.9 -378.72)"/><path d="M282.92,402v-9.43q4.32-2.45,12.46-2.45,7.78,0,11.59,3.35t3.82,10.4v23.4h-10.3v-4.46q-2.3,4.68-9.07,4.68-5.33,0-8.32-3a10.32,10.32,0,0,1-3-7.56,9.66,9.66,0,0,1,3.85-8.17q3.85-2.92,11.41-2.92H300v-2.52q0-4.61-6.12-4.61A19.54,19.54,0,0,0,282.92,402ZM300,412.27H296.6a6.43,6.43,0,0,0-4.1,1.15,3.62,3.62,0,0,0-1.44,3q0,3.67,4.25,3.67a4.4,4.4,0,0,0,3.46-1.37,5.41,5.41,0,0,0,1.22-3.74Z" transform="translate(-216.9 -378.72)"/><path d="M342.47,390.75h10.44v33q0,8.78-5.26,13.21a19.75,19.75,0,0,1-13.18,4.43A31.07,31.07,0,0,1,321,438.63V427.9a19.2,19.2,0,0,0,12.38,4q4.75,0,6.91-2t2.16-6.34v-2.45q-3.17,4.9-10.08,4.9a14,14,0,0,1-10.4-4.46q-4.36-4.46-4.36-13.25,0-7.78,4.21-12.85a13.66,13.66,0,0,1,11.05-5.08q6.48,0,9.58,5.18Zm-7.2,26.93a6.23,6.23,0,0,0,5.29-2.56,10,10,0,0,0,1.91-6.16q0-9.79-7.13-9.79a5.83,5.83,0,0,0-5,2.45,11.22,11.22,0,0,0-1.8,6.77q0,4.54,1.73,6.91A5.77,5.77,0,0,0,335.27,417.67Z" transform="translate(-216.9 -378.72)"/><path d="M389.84,416.38v8.78q-3.74,2.45-11.45,2.45-9,0-14-5.22t-5-13.43q0-8.71,4.86-13.64a16.17,16.17,0,0,1,12-4.93q7.34,0,11.59,4.28t4.25,12.78a46.87,46.87,0,0,1-.58,5.69H370a8.85,8.85,0,0,0,3.74,4.68,11.89,11.89,0,0,0,6.41,1.66A15.57,15.57,0,0,0,389.84,416.38Zm-7.56-10.73v-.86q-.5-6.41-5.62-6.41a6.31,6.31,0,0,0-4.46,1.84,9.58,9.58,0,0,0-2.59,5.44Z" transform="translate(-216.9 -378.72)"/><path d="M410.07,390.75v6.19a10.72,10.72,0,0,1,4.21-4.79,12.66,12.66,0,0,1,6.8-1.76q5.62,0,8.78,3.35t3.17,9.83v23.69H422.53V405.51a7.17,7.17,0,0,0-1.51-4.93,5.4,5.4,0,0,0-4.25-1.69,6,6,0,0,0-4.79,2.27q-1.91,2.27-1.91,6.8v19.3H399.56v-36.5Z" transform="translate(-216.9 -378.72)"/><path d="M461,412.79a5.3,5.3,0,0,0-3.11-.91,5.56,5.56,0,0,0-2.63.58,5.18,5.18,0,0,0-1.8,1.55,6.68,6.68,0,0,0-1,2.22,9.92,9.92,0,0,0-.34,2.59,11.1,11.1,0,0,0,.34,2.77,6.63,6.63,0,0,0,1,2.28,5.15,5.15,0,0,0,1.81,1.55,5.64,5.64,0,0,0,2.64.58,5.09,5.09,0,0,0,2-.37,4.54,4.54,0,0,0,1.51-1,4.75,4.75,0,0,0,1-1.57,6.53,6.53,0,0,0,.43-2h2.28a7.79,7.79,0,0,1-2.23,5,7.22,7.22,0,0,1-5.18,1.8,8.26,8.26,0,0,1-3.48-.68,6.83,6.83,0,0,1-2.47-1.88,8.08,8.08,0,0,1-1.48-2.83,12.08,12.08,0,0,1-.49-3.5,11.43,11.43,0,0,1,.53-3.52,8.46,8.46,0,0,1,1.55-2.87,7.21,7.21,0,0,1,2.54-1.93,8.21,8.21,0,0,1,3.49-.71,8.82,8.82,0,0,1,2.54.36,6.85,6.85,0,0,1,2.14,1.06,5.94,5.94,0,0,1,1.56,1.74,6.38,6.38,0,0,1,.82,2.41h-2.28A4.24,4.24,0,0,0,461,412.79Z" transform="translate(-216.9 -378.72)"/><path d="M470.23,415.09v2.62h0a5.53,5.53,0,0,1,1.82-2.23,4.58,4.58,0,0,1,2.74-.67V417a5.78,5.78,0,0,0-2.09.34,3.29,3.29,0,0,0-1.39,1,4.06,4.06,0,0,0-.77,1.57,8.48,8.48,0,0,0-.24,2.12v5.52h-2V415.09Z" transform="translate(-216.9 -378.72)"/><path d="M482,429.16a13.11,13.11,0,0,1-.71,1.54,4.21,4.21,0,0,1-.77,1,2.61,2.61,0,0,1-.94.58,3.6,3.6,0,0,1-1.19.18,5.49,5.49,0,0,1-.72,0,3.4,3.4,0,0,1-.7-.17v-1.87a3.42,3.42,0,0,0,.61.2,2.6,2.6,0,0,0,.59.08,1.75,1.75,0,0,0,1-.3,1.84,1.84,0,0,0,.64-.85l.84-2.09-4.92-12.34h2.3l3.62,10.15h0l3.48-10.15h2.16Z" transform="translate(-216.9 -378.72)"/><path d="M492.07,415.09v1.68h0a3.06,3.06,0,0,1,1.58-1.5,5.91,5.91,0,0,1,2.38-.47,5.6,5.6,0,0,1,2.51.53,5.11,5.11,0,0,1,1.78,1.43,6.31,6.31,0,0,1,1.07,2.08,8.48,8.48,0,0,1,.36,2.5,8.76,8.76,0,0,1-.35,2.5,5.88,5.88,0,0,1-1.06,2.05,5,5,0,0,1-1.78,1.38,5.76,5.76,0,0,1-2.48.5,6.13,6.13,0,0,1-1-.1,5.67,5.67,0,0,1-1.12-.31,4.35,4.35,0,0,1-1-.59,3.28,3.28,0,0,1-.83-.92h0v6.38h-2V415.09Zm7.33,4.4a4.57,4.57,0,0,0-.7-1.48,3.42,3.42,0,0,0-1.2-1,3.65,3.65,0,0,0-1.72-.38,3.37,3.37,0,0,0-2.93,1.48,4.46,4.46,0,0,0-.66,1.5,7.27,7.27,0,0,0,0,3.47,4.36,4.36,0,0,0,.68,1.5,3.49,3.49,0,0,0,1.21,1,3.78,3.78,0,0,0,1.8.4,3.49,3.49,0,0,0,1.76-.41,3.28,3.28,0,0,0,1.14-1.08,4.7,4.7,0,0,0,.62-1.54,8.16,8.16,0,0,0,.19-1.78A6.35,6.35,0,0,0,499.4,419.5Z" transform="translate(-216.9 -378.72)"/><path d="M510.28,415.09v1.8h-2.47v7.7a2.2,2.2,0,0,0,.06.58.59.59,0,0,0,.23.34,1,1,0,0,0,.47.16,6.81,6.81,0,0,0,.78,0h.94v1.8h-1.56a7.35,7.35,0,0,1-1.36-.11,2,2,0,0,1-.91-.4,1.69,1.69,0,0,1-.52-.82,4.71,4.71,0,0,1-.17-1.39v-7.9h-2.11v-1.8h2.11v-3.72h2v3.72Z" transform="translate(-216.9 -378.72)"/><path d="M513,418.75a5.79,5.79,0,0,1,1.15-2.06,5.43,5.43,0,0,1,1.9-1.38,6.95,6.95,0,0,1,5.2,0,5.46,5.46,0,0,1,1.88,1.38,5.8,5.8,0,0,1,1.15,2.06,8.27,8.27,0,0,1,.38,2.56,8.15,8.15,0,0,1-.38,2.54,5.8,5.8,0,0,1-1.15,2.05,5.32,5.32,0,0,1-1.88,1.37,7.1,7.1,0,0,1-5.2,0,5.29,5.29,0,0,1-1.9-1.37,5.79,5.79,0,0,1-1.15-2.05,8.14,8.14,0,0,1-.38-2.54A8.25,8.25,0,0,1,513,418.75Zm2.08,4.56a4.18,4.18,0,0,0,.83,1.46,3.58,3.58,0,0,0,1.24.9,3.76,3.76,0,0,0,3,0,3.58,3.58,0,0,0,1.24-.9,4.19,4.19,0,0,0,.83-1.46,6.85,6.85,0,0,0,0-4,4.34,4.34,0,0,0-.83-1.48,3.53,3.53,0,0,0-1.24-.91,3.76,3.76,0,0,0-3,0,3.53,3.53,0,0,0-1.24.91,4.32,4.32,0,0,0-.83,1.48,6.84,6.84,0,0,0,0,4Z" transform="translate(-216.9 -378.72)"/><path d="M535.31,417.25a3.1,3.1,0,0,0-2.06-.65,3.8,3.8,0,0,0-1.85.41,3.29,3.29,0,0,0-1.19,1.08,4.54,4.54,0,0,0-.64,1.55,8.44,8.44,0,0,0-.19,1.81,6.89,6.89,0,0,0,.2,1.68,4.5,4.5,0,0,0,.64,1.45,3.22,3.22,0,0,0,1.13,1A3.37,3.37,0,0,0,533,426a3.34,3.34,0,0,0,2.36-.79,3.58,3.58,0,0,0,1-2.23h2.09a5.72,5.72,0,0,1-1.72,3.55,5.39,5.39,0,0,1-3.76,1.25,6.47,6.47,0,0,1-2.51-.46,4.85,4.85,0,0,1-1.82-1.3,5.6,5.6,0,0,1-1.1-2,8.36,8.36,0,0,1-.37-2.56,9.1,9.1,0,0,1,.36-2.6,6,6,0,0,1,1.09-2.11,5.13,5.13,0,0,1,1.84-1.42,6,6,0,0,1,2.57-.52,7.5,7.5,0,0,1,2,.25,4.83,4.83,0,0,1,1.63.78,4.27,4.27,0,0,1,1.16,1.33,4.91,4.91,0,0,1,.58,1.91h-2.11A3.11,3.11,0,0,0,535.31,417.25Z" transform="translate(-216.9 -378.72)"/><path d="M549.93,427.5v-2h0a4.17,4.17,0,0,1-1.66,1.69,5,5,0,0,1-2.38.54,5.57,5.57,0,0,1-2-.32,3.25,3.25,0,0,1-1.32-.92,3.47,3.47,0,0,1-.71-1.43,7.67,7.67,0,0,1-.2-1.84v-8.16h2v8.4a2.46,2.46,0,0,0,.67,1.82,2.5,2.5,0,0,0,1.85.67,4.16,4.16,0,0,0,1.62-.29,3,3,0,0,0,1.14-.82,3.52,3.52,0,0,0,.68-1.24,5,5,0,0,0,.23-1.55v-7h2V427.5Z" transform="translate(-216.9 -378.72)"/><path d="M557.56,415.09v2.62h0a5.53,5.53,0,0,1,1.82-2.23,4.58,4.58,0,0,1,2.74-.67V417a5.78,5.78,0,0,0-2.09.34,3.29,3.29,0,0,0-1.39,1,4.06,4.06,0,0,0-.77,1.57,8.48,8.48,0,0,0-.24,2.12v5.52h-2V415.09Z" transform="translate(-216.9 -378.72)"/><path d="M566.35,415.09v2.62h0a5.53,5.53,0,0,1,1.82-2.23,4.58,4.58,0,0,1,2.74-.67V417a5.78,5.78,0,0,0-2.09.34,3.29,3.29,0,0,0-1.39,1,4.06,4.06,0,0,0-.77,1.57,8.48,8.48,0,0,0-.24,2.12v5.52h-2V415.09Z" transform="translate(-216.9 -378.72)"/><path d="M581.63,426.71a5.63,5.63,0,0,1-3.5,1.06,6.38,6.38,0,0,1-2.58-.48,5.08,5.08,0,0,1-1.84-1.34,5.7,5.7,0,0,1-1.12-2.06,9.93,9.93,0,0,1-.42-2.62,7.46,7.46,0,0,1,.43-2.59,6.2,6.2,0,0,1,1.21-2,5.5,5.5,0,0,1,1.85-1.34,5.64,5.64,0,0,1,2.34-.48,5.09,5.09,0,0,1,2.75.68,5.43,5.43,0,0,1,1.75,1.74,6.88,6.88,0,0,1,.91,2.3,9.89,9.89,0,0,1,.2,2.38h-9.29a4.92,4.92,0,0,0,.19,1.55,3.5,3.5,0,0,0,.7,1.3,3.42,3.42,0,0,0,1.22.9,4.21,4.21,0,0,0,1.75.34,3.53,3.53,0,0,0,2.12-.6,2.9,2.9,0,0,0,1.09-1.82h2A5,5,0,0,1,581.63,426.71Zm-.49-8a3.5,3.5,0,0,0-.74-1.12,3.54,3.54,0,0,0-1.1-.74,3.5,3.5,0,0,0-1.4-.28,3.56,3.56,0,0,0-1.43.28,3.29,3.29,0,0,0-1.09.76,3.61,3.61,0,0,0-.72,1.12,4.24,4.24,0,0,0-.31,1.36h7.13A4.19,4.19,0,0,0,581.14,418.74Z" transform="translate(-216.9 -378.72)"/><path d="M588.45,415.09v2h0a4.3,4.3,0,0,1,4-2.26,5.38,5.38,0,0,1,2,.34,3.36,3.36,0,0,1,1.32.94,3.48,3.48,0,0,1,.71,1.43,7.69,7.69,0,0,1,.2,1.84v8.16h-2v-8.4a2.47,2.47,0,0,0-.67-1.82,2.5,2.5,0,0,0-1.85-.67,4.16,4.16,0,0,0-1.62.29,3,3,0,0,0-1.14.82,3.52,3.52,0,0,0-.68,1.24,5,5,0,0,0-.23,1.55v7h-2V415.09Z" transform="translate(-216.9 -378.72)"/><path d="M608.08,417.25a3.1,3.1,0,0,0-2.06-.65,3.8,3.8,0,0,0-1.85.41,3.29,3.29,0,0,0-1.19,1.08,4.54,4.54,0,0,0-.64,1.55,8.44,8.44,0,0,0-.19,1.81,6.89,6.89,0,0,0,.2,1.68,4.5,4.5,0,0,0,.64,1.45,3.22,3.22,0,0,0,1.13,1,3.37,3.37,0,0,0,1.66.38,3.34,3.34,0,0,0,2.36-.79,3.58,3.58,0,0,0,1-2.23h2.09a5.72,5.72,0,0,1-1.72,3.55,5.39,5.39,0,0,1-3.76,1.25,6.47,6.47,0,0,1-2.51-.46,4.85,4.85,0,0,1-1.82-1.3,5.6,5.6,0,0,1-1.1-2,8.36,8.36,0,0,1-.37-2.56,9.1,9.1,0,0,1,.36-2.6,6,6,0,0,1,1.09-2.11,5.13,5.13,0,0,1,1.84-1.42,6,6,0,0,1,2.57-.52,7.5,7.5,0,0,1,2,.25,4.83,4.83,0,0,1,1.63.78,4.27,4.27,0,0,1,1.16,1.33,4.91,4.91,0,0,1,.58,1.91h-2.11A3.11,3.11,0,0,0,608.08,417.25Z" transform="translate(-216.9 -378.72)"/><path d="M619.22,429.16a13.11,13.11,0,0,1-.71,1.54,4.21,4.21,0,0,1-.77,1,2.61,2.61,0,0,1-.94.58,3.6,3.6,0,0,1-1.19.18,5.49,5.49,0,0,1-.72,0,3.4,3.4,0,0,1-.7-.17v-1.87a3.42,3.42,0,0,0,.61.2,2.6,2.6,0,0,0,.59.08,1.75,1.75,0,0,0,1-.3,1.84,1.84,0,0,0,.64-.85l.84-2.09L613,415.09h2.3l3.62,10.15h0l3.48-10.15h2.16Z" transform="translate(-216.9 -378.72)"/><path d="M638.11,410.36l5.4,14.4,5.42-14.4H652V427.5h-2.16V413.24h0l-5.35,14.26h-1.94l-5.35-14.26h0V427.5H635V410.36Z" transform="translate(-216.9 -378.72)"/><path d="M667.29,427.45a2.89,2.89,0,0,1-1.46.31,1.75,1.75,0,0,1-1.26-.44,1.93,1.93,0,0,1-.47-1.45,4.88,4.88,0,0,1-2,1.45,6.75,6.75,0,0,1-4,.25,3.7,3.7,0,0,1-1.31-.6,2.87,2.87,0,0,1-.88-1.07,3.59,3.59,0,0,1-.32-1.6,3.64,3.64,0,0,1,.36-1.73,3.14,3.14,0,0,1,.95-1.09,4.35,4.35,0,0,1,1.34-.64q.76-.22,1.55-.36t1.6-.25a8.86,8.86,0,0,0,1.33-.24,2.22,2.22,0,0,0,.91-.46,1.11,1.11,0,0,0,.34-.88,2,2,0,0,0-.25-1.08,1.73,1.73,0,0,0-.65-.62,2.64,2.64,0,0,0-.89-.29,6.73,6.73,0,0,0-1-.07,4.31,4.31,0,0,0-2.16.49,2.09,2.09,0,0,0-.94,1.86h-2a4.4,4.4,0,0,1,.48-1.94,3.63,3.63,0,0,1,1.15-1.28,4.84,4.84,0,0,1,1.64-.71,8.67,8.67,0,0,1,2-.22,11.68,11.68,0,0,1,1.67.12,4.36,4.36,0,0,1,1.5.49,2.87,2.87,0,0,1,1.08,1,3.32,3.32,0,0,1,.41,1.75v6.37a4.72,4.72,0,0,0,.08,1.05c.06.22.24.33.56.33a2.46,2.46,0,0,0,.62-.1ZM664,421.09a2.54,2.54,0,0,1-1,.42q-.62.13-1.31.21l-1.38.19a5.11,5.11,0,0,0-1.25.35,2.26,2.26,0,0,0-.9.68,1.9,1.9,0,0,0-.35,1.21,1.64,1.64,0,0,0,.2.85,1.69,1.69,0,0,0,.53.56,2.22,2.22,0,0,0,.76.31,4.19,4.19,0,0,0,.91.1,4.85,4.85,0,0,0,1.73-.27,3.65,3.65,0,0,0,1.18-.69,2.74,2.74,0,0,0,.67-.91,2.28,2.28,0,0,0,.22-.92Z" transform="translate(-216.9 -378.72)"/><path d="M671.83,415.09v2.62h0a5.53,5.53,0,0,1,1.82-2.23,4.59,4.59,0,0,1,2.74-.67V417a5.78,5.78,0,0,0-2.09.34,3.29,3.29,0,0,0-1.39,1,4.08,4.08,0,0,0-.77,1.57,8.48,8.48,0,0,0-.24,2.12v5.52h-2V415.09Z" transform="translate(-216.9 -378.72)"/><path d="M680.92,410.36v10.15l5.66-5.42h2.74l-4.92,4.51,5.28,7.9h-2.59L682.84,421l-1.92,1.78v4.7h-2V410.36Z" transform="translate(-216.9 -378.72)"/><path d="M700.79,426.71a5.63,5.63,0,0,1-3.5,1.06,6.38,6.38,0,0,1-2.58-.48,5.08,5.08,0,0,1-1.84-1.34,5.69,5.69,0,0,1-1.12-2.06,9.91,9.91,0,0,1-.42-2.62,7.44,7.44,0,0,1,.43-2.59,6.19,6.19,0,0,1,1.21-2,5.51,5.51,0,0,1,1.85-1.34,5.64,5.64,0,0,1,2.34-.48,5.09,5.09,0,0,1,2.75.68,5.44,5.44,0,0,1,1.75,1.74,6.87,6.87,0,0,1,.91,2.3,9.92,9.92,0,0,1,.2,2.38H693.5a4.89,4.89,0,0,0,.19,1.55,3.49,3.49,0,0,0,.7,1.3,3.43,3.43,0,0,0,1.22.9,4.22,4.22,0,0,0,1.75.34,3.53,3.53,0,0,0,2.12-.6,2.91,2.91,0,0,0,1.09-1.82h2A5,5,0,0,1,700.79,426.71Zm-.49-8a3.48,3.48,0,0,0-.74-1.12,3.67,3.67,0,0,0-3.94-.74,3.29,3.29,0,0,0-1.09.76,3.6,3.6,0,0,0-.72,1.12,4.26,4.26,0,0,0-.31,1.36h7.13A4.19,4.19,0,0,0,700.3,418.74Z" transform="translate(-216.9 -378.72)"/><path d="M711,415.09v1.8h-2.47v7.7a2.23,2.23,0,0,0,.06.58.59.59,0,0,0,.23.34,1,1,0,0,0,.47.16,6.79,6.79,0,0,0,.78,0H711v1.8h-1.56a7.36,7.36,0,0,1-1.36-.11,2,2,0,0,1-.91-.4,1.69,1.69,0,0,1-.52-.82,4.74,4.74,0,0,1-.17-1.39v-7.9h-2.11v-1.8h2.11v-3.72h2v3.72Z" transform="translate(-216.9 -378.72)"/><path d="M732.2,412.79a5.3,5.3,0,0,0-3.11-.91,5.56,5.56,0,0,0-2.63.58,5.18,5.18,0,0,0-1.8,1.55,6.66,6.66,0,0,0-1,2.22,9.94,9.94,0,0,0-.34,2.59,11.12,11.12,0,0,0,.34,2.77,6.61,6.61,0,0,0,1,2.28,5.15,5.15,0,0,0,1.81,1.55,5.64,5.64,0,0,0,2.64.58,5.09,5.09,0,0,0,2-.37,4.54,4.54,0,0,0,1.51-1,4.74,4.74,0,0,0,1-1.57,6.56,6.56,0,0,0,.43-2h2.28a7.79,7.79,0,0,1-2.23,5,7.22,7.22,0,0,1-5.18,1.8,8.26,8.26,0,0,1-3.48-.68,6.82,6.82,0,0,1-2.47-1.88,8.09,8.09,0,0,1-1.48-2.83A12.08,12.08,0,0,1,721,419a11.42,11.42,0,0,1,.53-3.52,8.47,8.47,0,0,1,1.55-2.87,7.21,7.21,0,0,1,2.54-1.93,8.21,8.21,0,0,1,3.49-.71,8.82,8.82,0,0,1,2.54.36,6.86,6.86,0,0,1,2.14,1.06,6,6,0,0,1,1.56,1.74,6.38,6.38,0,0,1,.82,2.41h-2.28A4.24,4.24,0,0,0,732.2,412.79Z" transform="translate(-216.9 -378.72)"/><path d="M750.62,427.45a2.89,2.89,0,0,1-1.46.31,1.75,1.75,0,0,1-1.26-.44,1.93,1.93,0,0,1-.47-1.45,4.88,4.88,0,0,1-2,1.45,6.75,6.75,0,0,1-4,.25,3.69,3.69,0,0,1-1.31-.6,2.88,2.88,0,0,1-.88-1.07,4.2,4.2,0,0,1,0-3.32,3.13,3.13,0,0,1,.95-1.09,4.35,4.35,0,0,1,1.34-.64q.76-.22,1.55-.36t1.6-.25a8.87,8.87,0,0,0,1.33-.24,2.22,2.22,0,0,0,.91-.46,1.11,1.11,0,0,0,.34-.88,2,2,0,0,0-.25-1.08,1.73,1.73,0,0,0-.65-.62,2.64,2.64,0,0,0-.89-.29,6.73,6.73,0,0,0-1-.07,4.31,4.31,0,0,0-2.16.49,2.09,2.09,0,0,0-.94,1.86h-2a4.41,4.41,0,0,1,.48-1.94,3.63,3.63,0,0,1,1.15-1.28,4.83,4.83,0,0,1,1.64-.71,8.68,8.68,0,0,1,2-.22,11.66,11.66,0,0,1,1.67.12,4.36,4.36,0,0,1,1.5.49,2.87,2.87,0,0,1,1.08,1,3.32,3.32,0,0,1,.41,1.75v6.37a4.72,4.72,0,0,0,.08,1.05c.06.22.24.33.56.33a2.46,2.46,0,0,0,.62-.1Zm-3.31-6.36a2.54,2.54,0,0,1-1,.42q-.62.13-1.31.21l-1.38.19a5.13,5.13,0,0,0-1.25.35,2.27,2.27,0,0,0-.9.68,1.9,1.9,0,0,0-.35,1.21,1.64,1.64,0,0,0,.21.85,1.68,1.68,0,0,0,.53.56,2.23,2.23,0,0,0,.76.31,4.2,4.2,0,0,0,.91.1,4.86,4.86,0,0,0,1.73-.27,3.66,3.66,0,0,0,1.18-.69,2.75,2.75,0,0,0,.67-.91,2.28,2.28,0,0,0,.22-.92Z" transform="translate(-216.9 -378.72)"/><path d="M755.42,415.09v1.68h0a3.06,3.06,0,0,1,1.58-1.5,5.92,5.92,0,0,1,2.38-.47,5.6,5.6,0,0,1,2.51.53,5.1,5.1,0,0,1,1.78,1.43,6.3,6.3,0,0,1,1.07,2.08,8.48,8.48,0,0,1,.36,2.5,8.74,8.74,0,0,1-.35,2.5,5.87,5.87,0,0,1-1.06,2.05,5,5,0,0,1-1.78,1.38,5.75,5.75,0,0,1-2.48.5,6.15,6.15,0,0,1-1-.1,5.66,5.66,0,0,1-1.12-.31,4.35,4.35,0,0,1-1-.59,3.29,3.29,0,0,1-.83-.92h0v6.38h-2V415.09Zm7.33,4.4a4.58,4.58,0,0,0-.7-1.48,3.41,3.41,0,0,0-1.2-1,3.65,3.65,0,0,0-1.72-.38,3.37,3.37,0,0,0-2.93,1.48,4.49,4.49,0,0,0-.66,1.5,7.26,7.26,0,0,0-.2,1.7,7.17,7.17,0,0,0,.22,1.76,4.34,4.34,0,0,0,.68,1.5,3.48,3.48,0,0,0,1.21,1,3.79,3.79,0,0,0,1.8.4,3.49,3.49,0,0,0,1.76-.41,3.29,3.29,0,0,0,1.14-1.08,4.71,4.71,0,0,0,.62-1.54,8.1,8.1,0,0,0,.19-1.78A6.37,6.37,0,0,0,762.75,419.5Z" transform="translate(-216.9 -378.72)"/><path d="M453.22,387.36v15.22h9.07v1.92H450.94V387.36Z" transform="translate(-216.9 -378.72)"/><path d="M464.86,389.86v-2.5h2v2.5Zm2,2.23V404.5h-2V392.09Z" transform="translate(-216.9 -378.72)"/><path d="M474.26,404.5l-4.61-12.41h2.28l3.48,10.34h0l3.38-10.34H481l-4.54,12.41Z" transform="translate(-216.9 -378.72)"/><path d="M492.43,403.71a5.63,5.63,0,0,1-3.5,1.06,6.38,6.38,0,0,1-2.58-.48,5.08,5.08,0,0,1-1.84-1.34,5.7,5.7,0,0,1-1.12-2.06,9.93,9.93,0,0,1-.42-2.62,7.46,7.46,0,0,1,.43-2.59,6.2,6.2,0,0,1,1.21-2,5.5,5.5,0,0,1,1.85-1.34,5.64,5.64,0,0,1,2.34-.48,5.09,5.09,0,0,1,2.75.68,5.43,5.43,0,0,1,1.75,1.74,6.88,6.88,0,0,1,.91,2.3,9.89,9.89,0,0,1,.2,2.38h-9.29a4.92,4.92,0,0,0,.19,1.55,3.5,3.5,0,0,0,.7,1.3,3.42,3.42,0,0,0,1.22.9A4.21,4.21,0,0,0,489,403a3.53,3.53,0,0,0,2.12-.6,2.9,2.9,0,0,0,1.09-1.82h2A5,5,0,0,1,492.43,403.71Zm-.49-8a3.5,3.5,0,0,0-.74-1.12,3.54,3.54,0,0,0-1.1-.74,3.5,3.5,0,0,0-1.4-.28,3.56,3.56,0,0,0-1.43.28,3.29,3.29,0,0,0-1.09.76,3.61,3.61,0,0,0-.72,1.12,4.24,4.24,0,0,0-.31,1.36h7.13A4.19,4.19,0,0,0,491.94,395.74Z" transform="translate(-216.9 -378.72)"/></svg>